<svg width="80" height="69" viewBox="0 0 80 69" fill="none" xmlns="http://www.w3.org/2000/svg">
<g clip-path="url(#clip0_132_387)">
<path d="M7.34392 44.0941V61.6284H2.47552V37.718H9.01354L18.5569 55.5326V37.718H23.4253V61.6284H17.1333L7.34392 44.0941Z" fill="#00B29D"/>
<path d="M28.3289 37.718H33.4257V61.6284H28.3289V37.718Z" fill="#00B29D"/>
<mask id="mask0_132_387" style="mask-type:luminance" maskUnits="userSpaceOnUse" x="0" y="0" width="80" height="69">
<path d="M0 -7.62939e-06H80V69H0V-7.62939e-06Z" fill="white"/>
</mask>
<g mask="url(#mask0_132_387)">
<path d="M56.555 57.3723V61.6289H48.189C46.5955 61.6289 45.377 61.5473 44.5334 61.3835C41.5923 60.8116 39.5008 59.1708 38.259 56.4616C37.4387 54.6516 37.0287 52.4092 37.0287 49.735C37.0287 46.5235 37.6554 43.908 38.9093 41.8876C39.8114 40.4397 41.0211 39.3827 42.5386 38.7169C44.0559 38.0513 46.0212 37.7185 48.4351 37.7185H56.555V41.9751H49.0151C46.7303 41.9751 45.0546 42.5823 43.9885 43.7968C43.1098 44.8013 42.6704 46.623 42.6704 49.2619C42.6704 52.789 43.3559 55.1069 44.7268 56.2162C45.6873 56.9868 47.1812 57.3723 49.2085 57.3723H56.555Z" fill="#00B29D"/>
<path d="M78.1726 37.7185V41.9751H71.5115C69.7655 41.9751 68.4974 42.0949 67.7065 42.3341C66.9156 42.5737 66.2565 43.0379 65.7292 43.7268C65.3778 44.1941 65.1374 44.6669 65.0087 45.1455C64.8796 45.6247 64.7684 46.4417 64.6747 47.5979H78.1726V51.8544H64.6747C64.8505 53.9215 65.4539 55.3579 66.4849 56.1636C67.5158 56.9696 69.2676 57.3723 71.7401 57.3723H78.1726V61.6289H71.5115C69.7071 61.6289 68.1196 61.5179 66.7487 61.296C64.5926 60.9458 62.876 60.0059 61.599 58.4758C59.7828 56.2805 58.8749 53.3027 58.8749 49.5422C58.8749 45.3732 60.1579 42.1326 62.7239 39.8204C63.6026 39.0382 64.5399 38.4922 65.5359 38.1828C66.5317 37.8734 67.8674 37.7185 69.5431 37.7185H78.1726Z" fill="#00B29D"/>
<path d="M50.3124 11.6161C50.3124 11.6161 57.8077 13.582 73.5872 4.34239C73.5872 4.34239 79.5046 -0.815109 79.8991 5.30219C79.8991 5.30219 80.4908 9.06052 78.3211 14.7615C78.3211 14.7615 75.5597 20.8557 74.179 21.2489C72.7983 21.6421 65.5002 21.6421 62.7388 21.6421C59.9774 21.6421 51.8903 20.6592 51.8903 20.6592L47.9454 16.3342L50.3124 11.6161Z" fill="#00B29D"/>
<path d="M1.39567 24.0013C1.39567 24.0013 0.0149647 28.1296 0.0149647 29.899C0.0149647 29.899 -0.576766 35.4034 4.35432 32.4546C4.35432 32.4546 23.4871 19.873 36.308 23.6081L38.8721 19.6764L37.0041 15.584L22.8953 8.27435L18.556 9.65046C18.556 9.65046 12.2441 12.2061 11.2579 13.189C10.2717 14.1719 1.39567 24.0013 1.39567 24.0013Z" fill="#00B29D"/>
<path d="M3.88752 64.8935V67.9608H4.89925C5.34277 67.9608 5.65085 67.862 5.82354 67.664C5.92861 67.5433 6.01322 67.3705 6.07745 67.1461C6.14155 66.9214 6.17373 66.6824 6.17373 66.4288C6.17373 66.1497 6.13572 65.8928 6.05989 65.6578C5.98399 65.4229 5.88309 65.2483 5.75713 65.1343C5.57495 64.9738 5.28905 64.8935 4.89925 64.8935H3.88752ZM2.87213 64.0455H4.89925C5.40579 64.0455 5.79784 64.0955 6.07572 64.1957C6.58681 64.3794 6.92758 64.7191 7.09803 65.2145C7.22873 65.5937 7.29405 66.0009 7.29405 66.4357C7.29405 66.8661 7.23219 67.2722 7.10854 67.6536C6.98476 68.0445 6.77822 68.3317 6.4888 68.5156C6.30675 68.6319 6.10777 68.7099 5.89181 68.7494C5.67591 68.789 5.34508 68.8086 4.89925 68.8086H2.87213V64.0455Z" fill="#4B4B4C"/>
<path d="M14.3235 64.0455H15.3388V68.8086H14.3235V64.0455Z" fill="#4B4B4C"/>
<path d="M24.3761 65.9788H26.7254V68.8086H24.5897C24.2186 68.8086 23.925 68.7814 23.7091 68.7268C23.4932 68.6721 23.2966 68.5761 23.1192 68.4389C22.6173 68.0526 22.3664 67.3885 22.3664 66.4463C22.3664 65.8275 22.4854 65.3146 22.7235 64.9076C22.9009 64.6073 23.1419 64.3888 23.4465 64.2514C23.7512 64.1143 24.1486 64.0456 24.6387 64.0456H26.7254V64.8935H24.7543C24.3293 64.8935 24.0202 64.9867 23.8264 65.1727C23.6 65.3914 23.4868 65.7834 23.4868 66.3486C23.4868 66.6394 23.5166 66.9017 23.5761 67.1355C23.6356 67.3693 23.7167 67.5433 23.8195 67.6571C23.9128 67.762 24.0388 67.8387 24.1975 67.8875C24.3562 67.9363 24.5534 67.9609 24.7892 67.9609H25.71V66.8266H24.3761V65.9788Z" fill="#4B4B4C"/>
<path d="M33.8859 64.0455H34.9013V68.8086H33.8859V64.0455Z" fill="#4B4B4C"/>
<path d="M43.2558 64.8935H41.7328V64.0455H45.8536V64.8935H44.2711V68.8086H43.2558V64.8935Z" fill="#4B4B4C"/>
<path d="M54.1833 65.1902L53.5005 66.8581H54.8626L54.1833 65.1902ZM51.617 68.8086L53.5951 64.0456H54.7679L56.7461 68.8086H55.5522L55.0901 67.7061H53.273L52.8108 68.8086H51.617Z" fill="#4B4B4C"/>
<path d="M63.5147 64.0454H64.5301V66.7183C64.544 67.058 64.5592 67.2838 64.5755 67.3953C64.6083 67.6116 64.7126 67.7599 64.8889 67.8401C65.0651 67.9203 65.375 67.9607 65.8185 67.9607H66.7953V68.8085H65.7134C65.2023 68.8108 64.8312 68.782 64.6001 68.7213C64.0726 68.5677 63.7388 68.234 63.5987 67.7199C63.545 67.5222 63.517 67.1883 63.5147 66.7183V64.0454Z" fill="#4B4B4C"/>
<path d="M73.6146 68.8086V67.9608H75.7957C76.1459 67.9608 76.3793 67.9258 76.496 67.856C76.6641 67.7562 76.748 67.606 76.748 67.406C76.748 67.1756 76.65 67.0071 76.454 66.8999C76.3419 66.8395 76.1634 66.8093 75.9184 66.8093H75.0326C74.491 66.8093 74.1013 66.7114 73.8632 66.5159C73.7138 66.3927 73.5971 66.2376 73.5131 66.0503C73.429 65.8631 73.387 65.6636 73.387 65.4518C73.387 65.1168 73.485 64.811 73.6811 64.534C73.8725 64.2667 74.1795 64.1108 74.6019 64.0665C74.7442 64.0525 74.9567 64.0455 75.2391 64.0455H77.6094V64.8935H75.4702C75.1504 64.8958 74.938 64.9098 74.833 64.9354C74.6182 64.9889 74.5109 65.1506 74.5109 65.4206C74.5109 65.6484 74.6007 65.802 74.7804 65.8809C74.9018 65.9347 75.1026 65.9611 75.3827 65.9611H76.1494C76.5416 65.9611 76.8345 65.9949 77.0282 66.0625C77.3666 66.1766 77.5989 66.3766 77.725 66.6626C77.8276 66.893 77.8789 67.1395 77.8789 67.4025C77.8789 67.6909 77.8124 67.9502 77.6794 68.1806C77.4927 68.5064 77.2114 68.7005 76.8356 68.7633C76.6536 68.7936 76.3804 68.8086 76.0164 68.8086H73.6146Z" fill="#4B4B4C"/>
<path d="M0.409454 27.3434C0.409454 27.3434 5.73503 3.55639 21.5146 0.410948C21.5146 0.410948 29.7989 -2.14467 43.4088 7.09494C43.4088 7.09494 57.8077 17.3175 68.6561 17.7107C68.6561 17.7107 76.3487 18.3004 79.7018 9.65056C79.7018 9.65056 78.9128 30.4888 60.7664 31.0786C60.7664 31.0786 47.9454 31.4717 35.3218 23.2151C35.3218 23.2151 13.8221 6.11201 0.409454 27.3434Z" fill="#F2BD2C"/>
</g>
</g>
<defs>
<clipPath id="clip0_132_387">
<rect width="80" height="69" fill="white"/>
</clipPath>
</defs>
</svg>
